<?xml version="1.0" encoding="UTF-8" standalone="no"?>
<!-- Generator: Adobe Illustrator 14.0.0, SVG Export Plug-In . SVG Version: 6.00 Build 43363)  -->

<svg
   xmlns:osb="http://www.openswatchbook.org/uri/2009/osb"
   xmlns:dc="http://purl.org/dc/elements/1.1/"
   xmlns:cc="http://creativecommons.org/ns#"
   xmlns:rdf="http://www.w3.org/1999/02/22-rdf-syntax-ns#"
   xmlns:svg="http://www.w3.org/2000/svg"
   xmlns="http://www.w3.org/2000/svg"
   xmlns:sodipodi="http://sodipodi.sourceforge.net/DTD/sodipodi-0.dtd"
   xmlns:inkscape="http://www.inkscape.org/namespaces/inkscape"
   version="1.1"
   id="Layer_1"
   x="0px"
   y="0px"
   width="70px"
   height="70px"
   viewBox="0 0 70 70"
   enable-background="new 0 0 70 70"
   xml:space="preserve"
   sodipodi:docname="bucket.svg"
   inkscape:export-filename="/home/zabba/Desktop/zeebaa.png"
   inkscape:export-xdpi="96"
   inkscape:export-ydpi="96"
   inkscape:version="0.92.4 (f8dce91, 2019-08-02)"><metadata
   id="metadata3791"><rdf:RDF><cc:Work
       rdf:about=""><dc:format>image/svg+xml</dc:format><dc:type
         rdf:resource="http://purl.org/dc/dcmitype/StillImage" /><dc:title></dc:title></cc:Work></rdf:RDF></metadata><defs
   id="defs3789"><linearGradient
     inkscape:collect="always"
     id="linearGradient4612"
     osb:paint="gradient"><stop
       style="stop-color:#460045;stop-opacity:1;"
       offset="0"
       id="stop4608" /><stop
       style="stop-color:#460045;stop-opacity:0;"
       offset="1"
       id="stop4610" /></linearGradient><linearGradient
     inkscape:collect="always"
     id="linearGradient4604"
     osb:paint="gradient"><stop
       style="stop-color:#e0e0e0;stop-opacity:1;"
       offset="0"
       id="stop4600" /><stop
       style="stop-color:#000000;stop-opacity:0;"
       offset="1"
       id="stop4602" /></linearGradient></defs><sodipodi:namedview
   pagecolor="#ffffff"
   bordercolor="#666666"
   borderopacity="1"
   objecttolerance="10"
   gridtolerance="10"
   guidetolerance="10"
   inkscape:pageopacity="0"
   inkscape:pageshadow="2"
   inkscape:window-width="3440"
   inkscape:window-height="1376"
   id="namedview3787"
   showgrid="false"
   inkscape:snap-bbox="true"
   inkscape:zoom="17.11"
   inkscape:cx="25.151958"
   inkscape:cy="39.675628"
   inkscape:window-x="0"
   inkscape:window-y="27"
   inkscape:window-maximized="1"
   inkscape:current-layer="Layer_1"
   inkscape:snap-global="true"
   showguides="false" />
<g
   id="g3784"
   inkscape:export-filename="/home/zabba/Desktop/chordbucket/bucket.png"
   inkscape:export-xdpi="663.03467"
   inkscape:export-ydpi="663.03467"
   transform="translate(-5.9029807,-7.4225599)"
   style="fill:#d7d7d7;fill-opacity:0.39215687">
	<g
   id="g3782"
   style="fill:#d7d7d7;fill-opacity:0.39215687">
		<g
   id="g3780"
   style="fill:#d7d7d7;fill-opacity:0.39215687">
			<g
   id="g3774"
   style="fill:#d7d7d7;fill-opacity:0.39215687">
				<path
   d="m 63.95,15.786 c 0,4.006 -12.963,7.238 -28.949,7.238 -15.988,0 -28.951,-3.232 -28.951,-7.238 l 9.65,43.839 c 0,2.672 8.637,4.826 19.301,4.826 10.662,0 19.299,-2.154 19.299,-4.826 v 0 z"
   id="path3772"
   style="clip-rule:evenodd;fill:#d7d7d7;fill-opacity:0.39215687;fill-rule:evenodd"
   inkscape:connector-curvature="0" />
			</g>
			<g
   id="g3778"
   style="fill:#d7d7d7;fill-opacity:0.39215687">
				<path
   d="m 63.95,14.786 c 0,-4.004 -12.963,-7.237 -28.949,-7.237 -15.988,0 -28.951,3.233 -28.951,7.237 0,4.006 12.963,7.238 28.951,7.238 15.986,0 28.949,-3.232 28.949,-7.238 z"
   id="path3776"
   style="clip-rule:evenodd;fill:#d7d7d7;fill-opacity:0.39215687;fill-rule:evenodd;stroke:none;stroke-width:0;stroke-linejoin:round;stroke-miterlimit:4;stroke-dasharray:none"
   inkscape:connector-curvature="0" />
			</g>
		</g>
	</g>
</g>
<path
   style="fill:#d7d7d7;fill-opacity:0.39215687;stroke:none;stroke-width:0;stroke-linejoin:round;stroke-miterlimit:4;stroke-dasharray:none"
   d="M 25.841613,56.950573 C 19.360042,56.647619 13.925916,55.576718 11.381662,54.100957 10.564912,53.627211 10.017874,53.067202 9.8875915,52.571456 9.8094226,52.274011 0.41788428,9.5323651 0.41788428,9.4740561 c 0,-0.026703 0.10084891,0.078738 0.22410868,0.2343134 0.83196594,1.0500845 2.20303324,1.8757885 4.57286944,2.7539415 7.2045086,2.669662 21.0413036,3.815211 33.3093926,2.757685 8.167659,-0.704063 14.643743,-2.282594 17.706736,-4.31598 0.483344,-0.32087 1.139382,-0.9130315 1.399744,-1.2634549 L 57.761009,9.465225 57.731839,9.6697838 C 57.715799,9.7822911 55.612571,19.36879 53.058007,30.973115 50.503444,42.57744 48.39477,52.19024 48.372067,52.334892 c -0.126083,0.803302 -0.9509,1.545101 -2.471731,2.22295 -2.618183,1.166949 -6.982912,1.985715 -12.460824,2.337489 -1.286037,0.08259 -6.241995,0.118618 -7.597896,0.05524 z"
   id="path4859"
   inkscape:connector-curvature="0"
   inkscape:export-filename="/home/zabba/Desktop/chordbucket/bucket.png"
   inkscape:export-xdpi="663.03467"
   inkscape:export-ydpi="663.03467" /></svg>