<svg viewBox="0 0 48 48" xmlns="http://www.w3.org/2000/svg" xmlns:xlink="http://www.w3.org/1999/xlink" width="48" height="48">
<defs>



 <path fill="#5d6b82" id="i-2184" d="M8,37h32c4.411,0,8-3.589,8-8s-3.589-8-8-8H8c-1.104,0-2-0.896-2-2s0.896-2,2-2h32c4.411,0,8-3.589,8-8s-3.589-8-8-8h-3.696 c-0.821-0.486-2.247-0.816-3.116-0.982L18,0v1H6.586L6.293,1.293c-0.572,0.572-2.014,0.572-2.586,0L3.136,0.722L2.457,1.16 C0.826,2.215,0,3.17,0,4s0.826,1.785,2.457,2.84l0.679,0.438l0.571-0.571c0.572-0.572,2.014-0.572,2.586,0L6.586,7H18v1h15.095 l0.093-0.018C34.057,7.816,35.481,7.486,36.304,7H40c1.103,0,2,0.896,2,2s-0.897,2-2,2H8c-4.411,0-8,3.589-8,8s3.589,8,8,8h32 c1.103,0,2,0.896,2,2s-0.897,2-2,2H8c-4.411,0-8,3.589-8,8s3.589,8,8,8h3.695c0.822,0.486,2.248,0.816,3.117,0.982L30,48v-1h11.414 l0.293-0.293c0.572-0.572,2.014-0.572,2.586,0l0.571,0.571l0.679-0.438C47.173,45.785,48,44.83,48,44s-0.827-1.785-2.457-2.84 l-0.679-0.438l-0.571,0.571c-0.572,0.572-2.014,0.572-2.586,0L41.414,41H30v-1H15l-0.188,0.018 c-0.869,0.166-2.295,0.496-3.117,0.982H8c-1.104,0-2-0.896-2-2S6.896,37,8,37z M2.982,4.768C2.615,4.49,2.285,4.204,2.103,4 c0.183-0.203,0.513-0.49,0.881-0.768C4.269,3.971,6.202,3.877,7.369,3H8v2H7.369C6.202,4.123,4.269,4.027,2.982,4.768z M10,5V3h8v2 H10z M20,5V3V2h11v4H20V5z M35.316,5.271C35.081,5.451,34.027,5.771,33,5.979V2.02c1.027,0.21,2.079,0.527,2.287,0.682 C35.616,3.102,35.616,4.898,35.316,5.271z M45.017,43.232c0.369,0.277,0.698,0.563,0.881,0.768c-0.183,0.203-0.513,0.49-0.881,0.768 c-1.285-0.738-3.22-0.645-4.386,0.232H40v-2h0.631C41.796,43.877,43.731,43.971,45.017,43.232z M38,43v2h-8v-2H38z M28,43v2v1H17v-4 h11V43z M12.684,42.729c0.236-0.18,1.289-0.499,2.316-0.708v3.96c-1.026-0.209-2.077-0.527-2.287-0.682 C12.385,44.898,12.385,43.102,12.684,42.729z M8,43h2.568c-0.108,0.648-0.108,1.352,0,2H8c-3.309,0-6-2.691-6-6s2.691-6,6-6h32 c2.206,0,4-1.795,4-4s-1.794-4-4-4H8c-3.309,0-6-2.691-6-6s2.691-6,6-6h32c2.206,0,4-1.795,4-4s-1.794-4-4-4h-2.568 c0.108-0.648,0.108-1.352,0-2H40c3.309,0,6,2.691,6,6s-2.691,6-6,6H8c-2.205,0-4,1.795-4,4s1.795,4,4,4h32c3.309,0,6,2.691,6,6 s-2.691,6-6,6H8c-2.205,0-4,1.795-4,4S5.795,43,8,43z"/> 
</defs>

<use x="0" y="0" xlink:href="#i-2184"/>

</svg>