<svg viewBox="0 0 48 48" xmlns="http://www.w3.org/2000/svg" xmlns:xlink="http://www.w3.org/1999/xlink" width="48" height="48">
<defs>



 <path fill="#5d6b82" id="i-2170" d="M47.686,5.29c-0.135-0.093-0.342-0.208-0.576-0.329l0.865-1.736V2.99c0-1.537-1.453-2.99-2.99-2.99H44.75l-1.748,0.872 c-0.117-0.227-0.227-0.426-0.316-0.552c-0.32-0.461-1.031-0.391-1.42,0c-0.391,0.39-0.451,1.09,0,1.41 c0.002,0.001,0.006,0.003,0.008,0.004l-1.115,0.557l-0.131,0.393c-0.004,0.009-0.096,0.283-0.277,0.711 c-0.021-0.034-0.045-0.076-0.064-0.104c-0.32-0.45-1.031-0.39-1.42,0c-0.391,0.39-0.451,1.101,0,1.42 c0.146,0.103,0.381,0.231,0.652,0.368c-0.393,0.684-0.889,1.412-1.482,2.046l-19.41,18.528C16.247,24.609,14.184,24,11.975,24 c-6.62,0-12,5.38-12,12c0,2.457,0.744,4.742,2.015,6.646l-0.335,0.447l3.227,3.227l0.447-0.336C7.232,47.256,9.518,48,11.975,48 c6.62,0,12-5.38,12-12c0-2.211-0.611-4.277-1.657-6.058l18.364-19.245c0.668-0.664,1.469-1.212,2.217-1.639 c0.135,0.27,0.264,0.506,0.367,0.651c0.32,0.45,1.029,0.39,1.42,0c0.389-0.39,0.449-1.101,0-1.42 c-0.029-0.02-0.07-0.043-0.105-0.064c0.428-0.181,0.703-0.274,0.713-0.278l0.393-0.131l0.564-1.133 c0.004,0.008,0.01,0.02,0.016,0.026c0.32,0.45,1.029,0.39,1.42,0C48.074,6.32,48.135,5.609,47.686,5.29z M5.069,43.68l-0.773-0.773 l1.788-2.384l1.369,1.369L5.069,43.68z M11.975,46c-1.795,0-3.471-0.48-4.924-1.307l3.446-2.585l-4.631-4.631l-2.584,3.446 C2.456,39.471,1.975,37.795,1.975,36c0-5.51,4.49-10,10-10s10,4.49,10,10S17.485,46,11.975,46z M21.142,28.271 c-0.44-0.521-0.922-1.003-1.443-1.442L37.955,9.391L38.574,10L21.142,28.271z M44.258,6.197c-0.803,0.31-2.65,1.106-4.242,2.412 l-0.65-0.649c1.305-1.594,2.102-3.44,2.412-4.243l3.387-1.688c0.334,0.1,0.684,0.449,0.783,0.782L44.258,6.197z M10.682,32.293l5,5 l-1.414,1.414l-5-5L10.682,32.293z"/> 
</defs>

<use x="0" y="0" xlink:href="#i-2170"/>

</svg>