<svg viewBox="0 0 48 48" xmlns="http://www.w3.org/2000/svg" xmlns:xlink="http://www.w3.org/1999/xlink" width="48" height="48">
<defs>



 <path fill="#5d6b82" id="i-2188" d="M11.25,21c-1.654,0-3,1.346-3,3s1.346,3,3,3s3-1.346,3-3S12.904,21,11.25,21z M11.25,25c-0.552,0-1-0.448-1-1s0.448-1,1-1 s1,0.448,1,1S11.802,25,11.25,25z M36.75,21c-1.654,0-3,1.346-3,3s1.346,3,3,3s3-1.346,3-3S38.404,21,36.75,21z M36.75,25 c-0.552,0-1-0.448-1-1s0.448-1,1-1s1,0.448,1,1S37.302,25,36.75,25z M16,21v6h16v-6H16z M27.087,23C27.032,23.29,27,23.62,27,24 s0.032,0.71,0.087,1h-5.174C21.968,24.71,22,24.38,22,24s-0.032-0.71-0.087-1H27.087z M18,23h1.824C19.882,23.095,20,23.365,20,24 s-0.118,0.905-0.176,1H18V23z M30,25h-0.824C29.118,24.905,29,24.635,29,24s0.118-0.905,0.176-1H30V25z M5,13c0,0.553-0.447,1-1,1 s-1-0.447-1-1s0.447-1,1-1S5,12.447,5,13z M45,13c0,0.553-0.447,1-1,1s-1-0.447-1-1s0.447-1,1-1S45,12.447,45,13z M5,35 c0,0.553-0.447,1-1,1s-1-0.447-1-1s0.447-1,1-1S5,34.447,5,35z M45,35c0,0.553-0.447,1-1,1s-1-0.447-1-1s0.447-1,1-1 S45,34.447,45,35z M18,34c0,0.553-0.447,1-1,1h-1c-0.553,0-1-0.447-1-1s0.447-1,1-1h1C17.553,33,18,33.447,18,34z M33,34 c0,0.553-0.447,1-1,1h-1c-0.553,0-1-0.447-1-1s0.447-1,1-1h1C32.553,33,33,33.447,33,34z M45,9H3c-1.654,0-3,1.346-3,3v24 c0,1.654,1.346,3,3,3h42c1.654,0,3-1.346,3-3V12C48,10.346,46.654,9,45,9z M11.517,37l2.143-5h20.682l2.143,5H11.517z M46,36 c0,0.552-0.448,1-1,1h-6.341l-3-7H12.341l-3,7H3c-0.552,0-1-0.448-1-1V12c0-0.552,0.448-1,1-1h42c0.552,0,1,0.448,1,1V36z"/> 
</defs>

<use x="0" y="0" xlink:href="#i-2188"/>

</svg>