<svg viewBox="0 0 48 48" xmlns="http://www.w3.org/2000/svg" xmlns:xlink="http://www.w3.org/1999/xlink" width="48" height="48">
<defs>



 <path fill="#5d6b82" id="i-2168" d="M44.944,0c-1.229,0-2.198,0.392-2.975,0.889C41.836,0.429,41.577,0,41.053,0c-1.183,0-0.462,0.796,0.236,1.387 c-0.165,0.137-0.32,0.271-0.463,0.405c-0.144-0.414-0.399-0.776-0.883-0.776c-1.191,0-0.451,0.801,0.252,1.389 c-0.119,0.12-0.244,0.245-0.374,0.375c-0.144-0.408-0.399-0.764-0.878-0.764c-1.191,0-0.451,0.801,0.252,1.389 c-0.109,0.11-0.221,0.221-0.332,0.331c-0.146-0.39-0.402-0.72-0.863-0.72c-1.173,0-0.474,0.776,0.22,1.362 c-0.122,0.121-0.241,0.239-0.356,0.354C37.716,4.344,37.461,4.016,37,4.016c-1.172,0-0.476,0.774,0.217,1.359 c-0.13,0.129-0.248,0.247-0.355,0.354C36.714,5.342,36.459,5.016,36,5.016c-1.169,0-0.479,0.771,0.213,1.356L36,6.583V7 c0,1.268-0.475,1.995-0.645,2.215L18.884,25.7C18.476,25.346,18,24.773,18,24c0-0.734,0.794-1.651,1.32-2.259 c0.576-0.666,1.074-1.241,0.812-1.966c-0.069-0.192-0.302-0.651-0.967-0.762c-4.633-0.774-5.971,2.591-6.947,5.046 c-0.517,1.302-1.004,2.53-1.818,3.141c-1.253,0.94-2.762,1.581-4.22,2.2C3.142,30.692,0,32.027,0,36c0,5.448,6.756,12,11,12 c4.86,0,6.155-3.23,7.196-5.826c0.762-1.901,1.42-3.543,3.176-4.245c4.539-1.815,5.349-4.381,5.112-5.61 C26.332,31.529,25.735,31,25,31c-0.732,0-1.187,0.321-1.519,0.556C23.145,31.794,22.854,32,22,32c-0.355,0-0.817-0.055-1.007-0.313 c-0.211-0.289-0.165-0.829-0.09-1.176l17.779-17.793l0.025-0.011c0.627-0.627,1.173-0.662,2.969-0.687l0.34-0.005 c1.192-0.019,1.504-1.337,1.898-3.006C44.111,8.172,44.576,6.208,45,6.016c1.654,0,3-1.343,3-2.992C48,1.356,46.654,0,44.944,0z M22,34c1.149,0,1.823-0.291,2.28-0.571c-0.4,0.692-1.39,1.738-3.652,2.643c-2.55,1.021-3.474,3.325-4.289,5.358 C15.316,43.983,14.507,46,11,46c-2.975,0-9-5.5-9-10c0-2.526,1.793-3.412,4.962-4.759c1.568-0.666,3.189-1.355,4.638-2.441 c1.264-0.948,1.88-2.5,2.477-4.002c0.886-2.23,1.553-3.663,3.312-3.873C16.729,21.727,16,22.789,16,24 c0,1.452,0.771,2.483,1.466,3.119L16.586,28l2.318,2.317c-0.109,0.658-0.144,1.69,0.465,2.535C19.746,33.376,20.509,34,22,34z M20,28.586L19.414,28L36,11.398l0.586,0.586L20,28.586z M44.992,4.016c-1.957,0.016-2.549,2.521-3.025,4.534 c-0.109,0.464-0.262,1.112-0.393,1.472c-1.441,0.021-2.508,0.046-3.484,0.639l-0.787-0.786c0.303-0.547,0.617-1.36,0.684-2.444 c0.698-0.693,2.535-2.519,3.758-3.746C42.492,2.934,43.424,2,44.999,2C45,2,45,2,45,2c0.542,0,1,0.469,1,1.023 C46,3.57,45.551,4.016,44.992,4.016z M14.707,30.293l3,3l-1.414,1.414l-3-3L14.707,30.293z M11.707,33.293l3,3l-1.414,1.414l-3-3 L11.707,33.293z M11.707,40.293l-1.414,1.414l-4-4l1.414-1.414L11.707,40.293z M14,41c0,0.553-0.448,1-1,1s-1-0.447-1-1s0.448-1,1-1 S14,40.447,14,41z M17,38c0,0.553-0.448,1-1,1s-1-0.447-1-1s0.448-1,1-1S17,37.447,17,38z M13,44c0,0.553-0.448,1-1,1s-1-0.447-1-1 s0.448-1,1-1S13,43.447,13,44z"/> 
</defs>

<use x="0" y="0" xlink:href="#i-2168"/>

</svg>