<svg viewBox="0 0 48 48" xmlns="http://www.w3.org/2000/svg" xmlns:xlink="http://www.w3.org/1999/xlink" width="48" height="48">
<defs>



 <path fill="#5d6b82" id="i-2175" d="M26.964,22.04c0,0.552-0.446,1-0.999,1c-0.552,0-1-0.448-1-1s0.448-1,1-1C26.518,21.04,26.964,21.488,26.964,22.04z M22.986,24c-0.553,0-1,0.447-1,1s0.447,1,1,1c0.552,0,1-0.447,1-1S23.538,24,22.986,24z M19.969,27.04c-0.553,0-1,0.447-1,1 s0.447,1,1,1c0.553,0,0.999-0.447,0.999-1S20.521,27.04,19.969,27.04z M16.987,30c-0.553,0-1,0.447-1,1s0.447,1,1,1 c0.551,0,0.999-0.447,0.999-1S17.538,30,16.987,30z M48,2.59l-0.01,0.43C47.96,4.45,45.76,8.62,42.521,9.87l-7.658,7.659 l0.143,0.143l-0.052,0.477c-0.164,1.51-2.38,3.726-3.887,3.886l-0.475,0.051l-0.142-0.142L13.376,39.03l0.673,0.674l-0.095,0.517 c-0.202,1.105-0.892,1.346-1.395,1.521c-0.502,0.176-1.343,0.469-2.878,2.005l-0.707,0.708l-0.511-0.512L6.979,45.43 C6.869,46.7,6.309,48,4.999,48h-0.42L0,43.41V43c0-1.32,1.299-1.88,2.57-1.98l1.486-1.486L3.563,39.04l0.707-0.707 c1.517-1.517,1.811-2.392,1.988-2.913c0.174-0.514,0.436-1.291,1.646-1.377L8.36,34.01l0.609,0.609l17.079-17.082l-0.083-0.083 V17.04c0-1.607,2.391-4,3.998-4h0.414l0.084,0.083l7.671-7.673C39.382,2.16,43.551,0,44.971,0h0.409L48,2.59z M7.049,42.528 l-1.58-1.581L3.409,43H3c-0.17,0-0.359,0.02-0.54,0.05l2.479,2.479c0.031-0.18,0.061-0.369,0.061-0.539v-0.41l0.29-0.29 L7.049,42.528z M11.515,39.996L8.002,36.48c-0.223,0.576-0.638,1.412-1.632,2.539l2.624,2.626 C10.134,40.633,10.957,40.218,11.515,39.996z M29.036,20.527l-1.578-1.58L10.379,36.029l1.583,1.586L29.036,20.527z M32.816,18.311 l-3.16-3.163c-0.528,0.282-1.301,1.056-1.584,1.587l3.159,3.162C31.768,19.582,32.502,18.846,32.816,18.311z M45.91,3.33l-1.27-1.25 c-1.13,0.359-3.949,2-4.698,4.24l-0.07,0.22l-8.002,7.994l1.579,1.58l7.982-7.984l0.23-0.08C43.871,7.311,45.521,4.49,45.91,3.33z M40.956,5.04l1.998,2l0.999-1l-1.999-2L40.956,5.04z"/> 
</defs>

<use x="0" y="0" xlink:href="#i-2175"/>

</svg>