<svg viewBox="0 0 48 48" xmlns="http://www.w3.org/2000/svg" xmlns:xlink="http://www.w3.org/1999/xlink" width="48" height="48">
<defs>



 <path fill="#5d6b82" id="i-2165" d="M26.689,43.088C32.488,33.072,44,12.953,44,11c0-0.24-0.02-0.46-0.07-0.65c-0.14-0.75-0.54-1.16-0.89-1.379 c-0.65-0.421-1.5-0.421-2.49-0.181c-1.189,0.28-2.58,0.91-4.09,1.61C34.83,11.15,32.97,12,32,12c-1.59,0-3.07-1.07-4.95-2.43 C24.07,7.416,20.074,4.539,13,4.072V3c0-1.654-1.346-3-3-3H7C5.346,0,4,1.346,4,3v2h2.139l5.702,38.016C10.262,43.101,9,44.4,9,46v2 h20v-2C29,44.584,28.011,43.4,26.689,43.088z M37.3,12.221c0.771-0.351,1.891-0.871,2.851-1.23c0.002-0.001,0.004-0.002,0.007-0.002 c-0.267,0.959-1.332,2.759-2.976,5.139l-0.688-3.541C36.76,12.466,37.028,12.344,37.3,12.221z M39.467,16.238 c-0.013,0.025-0.024,0.047-0.037,0.072c-0.359,0.68-0.75,1.41-1.17,2.18c-0.1,0.189-0.21,0.39-0.319,0.59 c-0.53,0.98-1.11,2.029-1.71,3.12c-0.141,0.26-0.29,0.521-0.44,0.78c0,0.01-0.01,0.029-0.021,0.049 c-0.31,0.551-0.619,1.121-0.939,1.691c-0.01,0.029-0.03,0.049-0.05,0.079c-0.46,0.83-0.931,1.671-1.41,2.521 c-0.23,0.43-0.47,0.85-0.72,1.279c-0.431,0.771-0.87,1.551-1.311,2.33c-0.05,0.09-0.1,0.18-0.149,0.26 c-0.41,0.73-0.83,1.461-1.24,2.19C28.02,36.779,26.1,40.1,24.42,43h-6.222C23.594,36.783,34.395,24.072,39.467,16.238z M34.611,13.38l0.972,4.999c-0.488,0.67-1.007,1.371-1.555,2.1l-1.274-6.556C33.324,13.824,33.947,13.633,34.611,13.38z M30.701,13.84l1.705,8.769c-0.506,0.656-1.031,1.331-1.571,2.019l-2.264-11.641C29.265,13.374,29.966,13.672,30.701,13.84z M25.88,11.189c0.12,0.088,0.236,0.171,0.354,0.256l2.965,15.246c-0.517,0.647-1.043,1.303-1.58,1.968L23.96,9.842 C24.641,10.295,25.274,10.753,25.88,11.189z M21.654,8.461l4.32,22.217c-0.523,0.639-1.051,1.281-1.588,1.93L19.5,7.479 C20.271,7.778,20.988,8.109,21.654,8.461z M17.325,6.77l5.411,27.82c-0.528,0.631-1.06,1.263-1.596,1.896L15.279,6.338 C15.999,6.455,16.682,6.6,17.325,6.77z M13.193,6.09l6.29,32.348c-0.934,1.095-1.874,2.188-2.816,3.273L11.312,6.008 C11.967,6.014,12.592,6.043,13.193,6.09z M6,3c0-0.551,0.449-1,1-1h3c0.551,0,1,0.449,1,1H6z M8.161,5h0.978l5.7,38h-0.978L8.161,5z M11,46c0-0.551,0.449-1,1-1h14c0.552,0,1,0.449,1,1H11z"/> 
</defs>

<use x="0" y="0" xlink:href="#i-2165"/>

</svg>