<svg viewBox="0 0 48 48" xmlns="http://www.w3.org/2000/svg" xmlns:xlink="http://www.w3.org/1999/xlink" width="48" height="48">
<defs>



 <path fill="#5d6b82" id="i-2164" d="M40.009,0c-2.853,0-5.202,0.92-6.615,2.592C32.223,3.975,31.722,5.793,31.886,8H16.114c0.163-2.207-0.338-4.025-1.508-5.408 C13.192,0.92,10.843,0,7.99,0C3.514,0,0.004,3.514,0,8.002l0.001,1.11h1.001L1.886,9.04l0.119-0.864C2.219,6.617,3.022,4,5.99,4 c1.746,0,3.996,0.275,4.806,1.585c0.639,1.034,0.393,2.798-0.692,4.968C3.781,23.199,3.366,24.374,2.02,29.758 c-1.414,5.656-0.993,9.826,1.288,12.748c2.199,2.815,6.146,4.303,11.701,4.463V48h18v-1.032c5.545-0.162,9.486-1.649,11.682-4.462 c2.281-2.922,2.703-7.092,1.288-12.748c-1.346-5.385-1.761-6.559-8.084-19.205c-1.085-2.17-1.331-3.934-0.691-4.968 C38.013,4.275,40.264,4,42.009,4c2.968,0,3.771,2.617,3.985,4.176l0.132,0.943l0.879-0.007c0.01,0,0.995-0.021,0.994-1.113 C47.995,3.514,44.485,0,40.009,0z M19.009,39V10h1v29H19.009z M22.009,10h1v29h-1V10z M25.009,10h1v29h-1V10z M28.009,10h1v29h-1V10 z M31.009,39V10h1.177c0.523,2.486,1.634,5.935,2.808,9.572c1.274,3.947,2.593,8.028,3.029,10.595 c0.563,3.318,0.051,6.304-1.37,7.985c-0.859,1.017-2.085,1.611-3.644,1.787V39H31.009z M14.99,44.985 c-4.899-0.147-8.296-1.394-10.105-3.711c-1.877-2.403-2.179-6.013-0.924-11.032c1.241-4.963,1.464-5.857,7.933-18.795 c1.447-2.895,1.65-5.221,0.604-6.914C11.596,3.076,9.83,2.24,7.238,2.045C7.484,2.016,7.735,2,7.99,2 c1.306,0,3.703,0.244,5.089,1.883c0.973,1.15,1.284,2.816,0.925,4.951c-0.398,2.367-1.671,6.311-2.902,10.123 c-1.296,4.015-2.636,8.166-3.098,10.876c-0.317,1.868-0.774,6.546,1.814,9.61c1.249,1.478,2.985,2.32,5.171,2.514V44.985z M11.347,38.152c-1.421-1.682-1.933-4.667-1.371-7.984c0.438-2.567,1.755-6.648,3.029-10.596c1.174-3.638,2.286-7.086,2.809-9.572 h1.195v29h-2v0.941C13.441,39.769,12.209,39.174,11.347,38.152z M17.009,41h14v5h-14V41z M35.502,4.533 c-1.047,1.693-0.844,4.02,0.604,6.914c6.469,12.936,6.692,13.83,7.934,18.795c1.255,5.02,0.952,8.629-0.925,11.032 c-1.81,2.317-5.206,3.563-10.105,3.711v-3.028c2.187-0.193,3.923-1.036,5.171-2.514c2.589-3.064,2.132-7.742,1.814-9.611 c-0.461-2.709-1.802-6.86-3.098-10.875c-1.23-3.812-2.504-7.756-2.901-10.123c-0.359-2.135-0.048-3.801,0.925-4.951 C36.306,2.244,38.703,2,40.009,2c0.256,0,0.506,0.016,0.753,0.045C38.169,2.24,36.402,3.076,35.502,4.533z"/> 
</defs>

<use x="0" y="0" xlink:href="#i-2164"/>

</svg>