<svg viewBox="0 0 48 48" xmlns="http://www.w3.org/2000/svg" xmlns:xlink="http://www.w3.org/1999/xlink" width="48" height="48">
<defs>



 <path fill="#5d6b82" id="i-2167" d="M20,23c-2.757,0-5,2.243-5,5s2.243,5,5,5s5-2.243,5-5S22.757,23,20,23z M20,31c-1.654,0-3-1.346-3-3s1.346-3,3-3 s3,1.346,3,3S21.654,31,20,31z M9.707,32.293l6,6l-1.414,1.414l-6-6L9.707,32.293z M47.336,6.074C47.742,5.667,48,5.131,48,4.109 C48,1.459,46.58,0,44,0c-1.076,0-1.619,0.271-2.057,0.719c-0.049-0.158-0.12-0.31-0.233-0.429c-0.37-0.37-1.05-0.37-1.42,0 C40.109,0.479,40,0.729,40,1c0,0.26,0.109,0.52,0.29,0.71c0.164,0.155,0.382,0.243,0.606,0.269 c-0.233,0.245-0.527,0.517-0.937,0.824c-0.04-0.189-0.116-0.372-0.25-0.513c-0.37-0.37-1.05-0.37-1.42,0C38.109,2.479,38,2.74,38,3 c0,0.27,0.109,0.52,0.29,0.7c0.095,0.095,0.204,0.169,0.325,0.221c-0.221,0.229-0.45,0.486-0.677,0.778 c-0.049-0.151-0.12-0.295-0.229-0.409c-0.38-0.37-1.04-0.37-1.42,0C36.109,4.479,36,4.74,36,5s0.109,0.52,0.29,0.71 C36.48,5.899,36.74,6,37,6c0.046,0,0.089-0.02,0.135-0.026c-0.189,0.39-0.328,0.786-0.365,1.166 c-0.024,0.243-0.002,0.449,0.037,0.64L26.198,18.388c-0.426-0.045-0.897-0.067-1.418-0.067C17.96,18.32,0,22.84,0,33 c0,8.27,6.73,15,15,15c4.59,0,8.71-3.85,11.609-10.85c2.025-4.9,3.386-11.548,2.98-15.326l10.625-10.625 c0.127,0.025,0.262,0.044,0.41,0.044c0.076,0,0.154-0.004,0.236-0.013c0.38-0.037,0.775-0.177,1.166-0.365 C42.021,10.911,42,10.953,42,11c0,0.27,0.109,0.52,0.29,0.71C42.48,11.89,42.74,12,43,12s0.52-0.11,0.71-0.29 C43.89,11.52,44,11.26,44,11s-0.11-0.521-0.29-0.71c-0.114-0.114-0.26-0.181-0.415-0.225c0.295-0.227,0.553-0.458,0.784-0.68 c0.05,0.118,0.122,0.225,0.211,0.314C44.48,9.89,44.73,10,45,10c0.26,0,0.52-0.11,0.71-0.29C45.89,9.52,46,9.26,46,9 s-0.11-0.521-0.29-0.71c-0.138-0.139-0.325-0.206-0.519-0.24c0.312-0.413,0.588-0.709,0.832-0.934 c0.027,0.219,0.114,0.433,0.267,0.594C46.48,7.89,46.74,8,47,8s0.52-0.11,0.71-0.29C47.89,7.52,48,7.26,48,7s-0.11-0.521-0.29-0.71 C47.604,6.187,47.475,6.119,47.336,6.074z M24.4,37.22C22.94,40.5,19.77,46,15,46C7.83,46,2,40.17,2,33 c0-8.021,15.356-12.449,22.255-12.669L23.586,21L27,24.414l0.668-0.668C27.559,26.971,26.629,32.222,24.4,37.22z M27,21.586 L26.414,21L38,9.414L38.586,10L27,21.586z M45.601,4.913c-0.549,0.379-1.378,0.952-2.432,2.532c-0.343,0.514-1.927,1.8-2.508,1.8 c-0.001,0-0.001,0-0.002,0l-1.903-1.903c-0.004-0.578,1.285-2.168,1.799-2.51c1.541-1.027,2.145-1.841,2.544-2.379 C43.434,2,43.434,2,44,2c1.458,0,2,0.571,2,2.109C46,4.637,46,4.637,45.601,4.913z M43.293,3.293l1.414,1.414l-3,3l-1.414-1.414 L43.293,3.293z"/> 
</defs>

<use x="0" y="0" xlink:href="#i-2167"/>

</svg>