<svg viewBox="0 0 48 48" xmlns="http://www.w3.org/2000/svg" xmlns:xlink="http://www.w3.org/1999/xlink" width="48" height="48">
<defs>



 <path fill="#5d6b82" id="i-2186" d="M48,10c0-5.514-4.486-10-10-10c-5.449,0-9.887,4.383-9.99,9.809l-0.894,2.681L1.625,41.039L3.586,43l-3.293,3.293 l1.414,1.414L5,44.414l1.949,1.949l29.458-25.395c-0.01-0.014-0.014-0.029-0.023-0.043l3.185-1.062C44.338,19.107,48,14.979,48,10z M39.896,17.76c-0.672-4.471-4.878-8.227-9.826-8.707c0.176-1.485,0.762-2.844,1.639-3.966c0.271-0.066,0.446-0.099,0.455-0.101 c2.519-0.419,5.479,0.566,7.922,2.637c2.437,2.064,3.897,4.803,3.914,7.333c-0.006,0.091-0.002,0.192,0.005,0.313 C42.938,16.479,41.514,17.365,39.896,17.76z M46,10c0,0.85-0.141,1.666-0.388,2.434c-0.647-2.299-2.124-4.55-4.233-6.337 c-2.158-1.827-4.694-2.933-7.13-3.159C35.368,2.34,36.645,2,38,2C42.411,2,46,5.589,46,10z M7.051,43.637l-2.676-2.676 l24.061-26.947c3.05,0.194,6.268,2.397,6.545,5.545L7.051,43.637z M29.354,12.102l0.356-1.07c3.827,0.332,7.821,3.289,8.252,7.261 l-1.089,0.362C36.189,15.084,32.838,12.619,29.354,12.102z"/> 
</defs>

<use x="0" y="0" xlink:href="#i-2186"/>

</svg>