<svg viewBox="0 0 48 48" xmlns="http://www.w3.org/2000/svg" xmlns:xlink="http://www.w3.org/1999/xlink" width="48" height="48">
<defs>



 <path fill="#5d6b82" id="i-2181" d="M28.909,8.293C26.072,7.555,25,7.123,25,5.5h-2l-0.018,27.596c-0.729-0.357-1.705-0.59-3.024-0.596 c-4.247,0-8.86,2.4-8.956,5.973c-0.029,1.049,0.305,1.963,0.964,2.646c0.858,0.889,2.25,1.366,4.026,1.381h0.085h0.001 c1.979,0,4.142-0.555,5.787-1.486C23.887,39.87,25,38.268,25,36.5c0-0.132-0.008-0.273-0.02-0.42l0.013-20.152 c0.896,0.516,1.967,0.811,2.935,1.076C30.452,17.699,32,18.24,32,20.5c-0.002,2.725-1.876,6.516-1.895,6.554L31.8,28.1 c0.393-0.522,0.768-1.012,1.123-1.475C35.29,23.541,37,21.314,37,17.5C37,10.4,32.323,9.183,28.909,8.293z M16.055,40.5 c-1.21-0.01-2.181-0.283-2.65-0.77c-0.285-0.297-0.418-0.689-0.404-1.203c0.062-2.305,3.725-4.027,6.996-4.027 c2.438,0.011,2.896,0.896,2.984,1.574L22.979,36.5H23l0,0c0,1.369-1.328,2.325-2.119,2.773C19.521,40.041,17.704,40.5,16.055,40.5 L16.055,40.5z M28.458,15.076C26.001,14.4,25,13.978,25,12.5h-0.004l0.002-3.484c0.997,0.586,2.238,0.909,3.407,1.213 C31.797,11.112,35,11.946,35,17.5c0,1.657-0.386,2.94-1.086,4.222C33.969,21.307,34,20.896,34,20.5 C34,16.602,30.797,15.72,28.458,15.076z"/> 
</defs>

<use x="0" y="0" xlink:href="#i-2181"/>

</svg>