<svg viewBox="0 0 48 48" xmlns="http://www.w3.org/2000/svg" xmlns:xlink="http://www.w3.org/1999/xlink" width="48" height="48">
<defs>



 <path fill="#5d6b82" id="i-2154" d="M48,6h-2V0h-8v6h-1V0h-8v6h-1V0h-8v6h-1V0h-8v6h-1V0H2v6H0v8h2v34h8V14h1v29h8V14h1v24h8V14h1v19h8V14h1v13.289h8V14h2V6z M40,2h4v4h-4V2z M31,2h4v4h-4V2z M22,2h4v4h-4V2z M13,2h4v4h-4V2z M4,2h4v4H4V2z M8,46H4V14h4V46z M17,41h-4V14h4V41z M26,36h-4V14 h4V36z M35,31h-4V14h4V31z M44,25.289h-4V14h4V25.289z M46,12H2V8h44V12z M5,10c0-0.553,0.448-1,1-1s1,0.447,1,1s-0.448,1-1,1 S5,10.553,5,10z M23,10c0-0.553,0.448-1,1-1c0.553,0,1,0.447,1,1s-0.447,1-1,1C23.448,11,23,10.553,23,10z M14,10 c0-0.553,0.448-1,1-1s1,0.447,1,1s-0.448,1-1,1S14,10.553,14,10z M32,10c0-0.553,0.447-1,1-1s1,0.447,1,1s-0.447,1-1,1 S32,10.553,32,10z M41,10c0-0.553,0.447-1,1-1s1,0.447,1,1s-0.447,1-1,1S41,10.553,41,10z"/> 
</defs>

<use x="0" y="0" xlink:href="#i-2154"/>

</svg>