<svg viewBox="0 0 48 48" xmlns="http://www.w3.org/2000/svg" xmlns:xlink="http://www.w3.org/1999/xlink" width="48" height="48">
<defs>



 <path fill="#5d6b82" id="i-2174" d="M44.711,29.29l-11-11c-0.35-0.34-0.9-0.39-1.29-0.101c-0.4,0.291-0.53,0.82-0.31,1.261c0.6,1.21,0.59,2.61-0.04,4.18 c-2.021,5.04-3.07,7.96-3.07,14.12c0,1.21-1.35,1.25-1.5,1.25s-1.5-0.04-1.5-1.25V33h1v1h2v-4h-2v1h-1v-3h1v1h2v-4h-2v1h-1v-3h1v1h2 v-4h-2v1h-1v-3h1v1h2v-4h-2v1h-1v-3h1v1h2v-4h-2v1h-1V8h1v1h2V5h-2v1h-1c0,0,0,0,0-0.01c0-4.391-3.59-5.99-6-5.99 c-1.88,0-2.85,0.58-3.87,1.2C15.226,1.74,14.166,2.37,12,2.724V1.819L4.52,3.066L1.879,5.707L12,7.152V6.488 c0.409,0.055,0.816,0.092,1.22,0.092c2,0,3.55-0.689,4.68-1.189c0.6-0.271,1.17-0.531,1.5-0.531c0.08,0,0.12,0.021,0.15,0.031 c1.7,0.85,1.76,1.6,0.75,9.93c-0.61,5.01-1.53,12.59-2.3,24.109c-0.15,2.211,0.63,4.35,2.19,6.01C22.03,46.91,24.811,48,28.001,48 c6.28,0,9.28-4.561,9.99-8.84c1.189-7.17,3.59-8.16,6.01-8.16c0.4,0,0.77-0.24,0.92-0.62C45.081,30.01,44.991,29.58,44.711,29.29z M10,4.181v0.667L7.847,4.539L10,4.181z M36.011,38.84c-0.279,1.68-1.68,7.16-8.01,7.16c-2.63,0-4.891-0.859-6.351-2.42 c-1.18-1.26-1.76-2.859-1.65-4.51c0.76-11.471,1.68-19.021,2.28-24.01c1.02-8.41,1.26-10.41-1.83-11.951 c-0.32-0.159-0.67-0.25-1.05-0.25c-0.75,0-1.48,0.33-2.31,0.701c-1.11,0.489-2.41,1.06-4.05,1.01c2.05-0.42,3.16-1.08,4.11-1.66 C18.07,2.359,18.681,2,20,2c0.04,0,4,0.05,4,4v31.75c0,2.13,1.76,3.25,3.5,3.25s3.5-1.12,3.5-3.25c0-5.8,0.95-8.43,2.93-13.38 c0.33-0.83,0.53-1.64,0.601-2.431l7.35,7.351C37.951,30.45,36.671,34.891,36.011,38.84z"/> 
</defs>

<use x="0" y="0" xlink:href="#i-2174"/>

</svg>