<svg viewBox="0 0 48 48" xmlns="http://www.w3.org/2000/svg" xmlns:xlink="http://www.w3.org/1999/xlink" width="48" height="48">
<defs>



 <path fill="#5d6b82" id="i-2179" d="M26.51,22.02c-0.31-2.609-0.609-4.97-0.93-7.209c0.359-0.381,0.71-0.75,1.07-1.121C30.05,10.109,33,7.02,33,4 c0-2.21-1.79-4-4-4c-1.58,0-2.95,0.641-3.971,1.84c-2.25,2.641-2.329,7.42-2.02,9.32c0.141,0.82,0.26,1.66,0.391,2.51 c-0.26,0.33-0.51,0.66-0.76,0.99c-0.851,1.119-1.701,2.22-2.48,3.311c-2.18,2.809-3.86,5.84-4.12,9.149C16.01,27.41,16,27.71,16,28 c0,5.38,5.17,9,10,9c0.01,0,0.13,0,0.34-0.02c0.2,1.619,0.43,3.34,0.67,5.149c0.18,1.37,0,2.38-0.55,3.011 c-0.021,0.01-0.04,0.029-0.05,0.049c-0.42,0.271-1.131,0.641-1.561,0.41c-0.5-0.279-0.859-1.369-0.85-2.59 c0.01-0.8-0.3-1.55-0.859-2.119C22.561,40.32,21.811,40,21,40c-1.65,0-3,1.35-3,3c0,1.16,0.51,2.311,1.43,3.221 C20.57,47.37,22.189,48,23.98,48c0.01,0,0.02,0,0.02,0c1.71,0,3.08-0.54,3.96-1.55c0.95-1.07,1.29-2.62,1.03-4.58 c-0.25-1.89-0.48-3.66-0.69-5.33C30.34,35.8,33,33.9,33,29C33,25.65,30.77,22.27,26.51,22.02z M20.84,44.811 C20.311,44.279,20,43.62,20,43c0-0.55,0.45-1,1-1c0.27,0,0.52,0.109,0.71,0.3S22,42.73,22,42.99c0,0.49,0.04,1.72,0.529,2.8 C21.87,45.6,21.29,45.26,20.84,44.811z M28.109,6.55c-0.529,1.06-1.159,2.101-1.83,3.13c0.451-3.039,1.311-4.14,1.641-4.459 c0.21-0.201,0.359-0.24,0.37-0.25C28.38,5.04,28.57,5.62,28.109,6.55z M26.55,3.13C27.2,2.37,28,2,29,2c1.1,0,2,0.9,2,2 c0,0.65-0.25,1.37-0.67,2.141c0.18-0.99,0-1.9-0.561-2.511c-0.569-0.62-1.43-0.81-2.25-0.5c-0.51,0.2-1.359,0.75-2.09,2.25 C25.689,4.52,26.04,3.73,26.55,3.13z M18,28c0-2.93,1.63-5.83,3.76-8.82c0.65-0.84,1.34-1.66,2.07-2.47 c0.23,1.74,0.46,3.56,0.689,5.521c-1.629,0.5-3.18,1.77-3.99,3.379c-0.989,1.971-0.75,4.101,0.671,5.99l2.22,2.961 C20.689,33.65,18,31.4,18,28z M25.939,35c-0.689-0.01-1.439-0.12-2.189-0.34l-0.77-3.86c0-0.01-0.33-1.81,0.56-2.899 c0.351-0.43,0.88-0.711,1.569-0.83c0.291,2.42,0.611,5.029,0.971,7.91C26.029,34.99,25.99,34.99,25.939,35z M28.029,34.42 c-0.329-2.641-0.629-5.04-0.899-7.279c1.93,0.479,3.04,2.159,3.14,3.75C30.35,32.17,29.75,33.6,28.029,34.42z M26,25 c-1.41,0-2.55,0.35-3.4,1.029C23.391,24.859,24.8,24,26,24c2.48,0,3.98,1.35,4.63,3.01C29.54,25.82,27.95,25,26,25z"/> 
</defs>

<use x="0" y="0" xlink:href="#i-2179"/>

</svg>