<svg viewBox="0 0 48 48" xmlns="http://www.w3.org/2000/svg" xmlns:xlink="http://www.w3.org/1999/xlink" width="48" height="48">
<defs>



 <path fill="#5d6b82" id="i-2178" d="M23.371,11.496c0.651-1.18,1.379-1.935,2.167-2.273c0.098,0.449,0.479,0.793,0.958,0.793c0.48,0,0.862-0.345,0.959-0.796 c0.787,0.336,1.512,1.091,2.16,2.266l15,27.979l1.762-0.945l-15.005-27.99c-0.749-1.358-1.622-2.314-2.602-2.887 c1.647-0.494,5.368-1.358,9.562-0.66c0.734,0.123,1.468-0.09,2.063-0.594c0.689-0.584,1.101-1.478,1.101-2.391 c0-1.653-1.346-2.998-3-2.998c-6.291,0-12.385,5.034-12.642,5.248c-0.227,0.19-0.358,0.471-0.358,0.768v0.121 C24.29,7.42,22.858,8.29,21.62,10.531L5.615,39.633c-0.748,1.354-1.772,3.209-0.521,5.375C6.14,46.816,8.032,47,9.498,47 c0.196,0,0.386-0.004,0.563-0.007l32.427-0.006l-0.055-2H10.56l-0.533,0.007c-1.57,0.025-2.646-0.027-3.201-0.986 c-0.652-1.131-0.22-2.031,0.541-3.408L23.371,11.496z M38.496,3c0.552,0,1,0.447,1,0.998c0,0.322-0.154,0.662-0.394,0.865 c-0.146,0.122-0.295,0.168-0.442,0.146c-1.256-0.209-2.467-0.293-3.603-0.293c-1.314,0-2.526,0.112-3.587,0.273 C33.502,3.941,36.018,3,38.496,3z M22.369,2.488l-19,34l-1.746-0.977l19-34L22.369,2.488z"/> 
</defs>

<use x="0" y="0" xlink:href="#i-2178"/>

</svg>