<svg viewBox="0 0 48 48" xmlns="http://www.w3.org/2000/svg" xmlns:xlink="http://www.w3.org/1999/xlink" width="48" height="48">
<defs>



 <path fill="#5d6b82" id="i-2173" d="M44.999,40c-0.554,0-1.001,0.447-1.001,1c0,0.283,0.118,0.798,0.307,1.235c-0.882,0.421-3.456,1.571-6.963,2.492 c3.452-2.751,5.675-6.98,5.675-11.727c0-8.271-6.731-15-15.006-15c-4.739,0-8.965,2.214-11.717,5.655 c1.254-8.934,6.374-11.76,9.917-13.713C28.25,8.82,30.012,7.849,30.012,6c0-3.701-5.747-6-15.011-6C5.748,0,0,2.299,0,6 c0,1.805,1.518,2.78,3.275,3.91c3.476,2.235,8.729,5.613,8.729,18.091c0,12.979,6.879,17.48,10.996,19.01 c1.953,0.817,3.8,0.989,5.007,0.989v-0.002h0.001V48h0.002v-0.002c0.001,0,0.001,0.001,0.002,0.001V48c0.002,0,0.003,0,0.005,0 h0.001c8.98,0,16.607-3.686,17.447-4.105c0.009-0.004,0.014-0.013,0.021-0.018C45.96,44.436,46.654,45,47,45c0.553,0,1-0.447,1-1 S45.552,40,44.999,40z M28.011,20.001c7.172,0,13.006,5.831,13.006,13c0,2.164-0.539,4.202-1.479,5.999H36.83 c-0.302-0.847-0.969-1.513-1.815-1.814l-0.001-11.185c0-2.206-1.795-4.001-4.001-4.001c-1.201,0-2.268,0.543-3.002,1.383 c-0.734-0.84-1.801-1.382-3.001-1.382c-2.205,0-4,1.794-4.001,3.999v11.186c-0.848,0.301-1.515,0.967-1.817,1.814h-1.291 c-1.249-2.859-1.895-6.544-1.896-10.99C17.968,23.312,22.609,20.001,28.011,20.001z M31.197,39H30.83 c-0.147-0.416-0.376-0.8-0.697-1.121c-0.321-0.32-0.706-0.549-1.122-0.696V25.999c0-1.103,0.898-1.999,2.002-1.999 s2.001,0.897,2.001,2.001l0.001,11.185C32.167,37.486,31.5,38.153,31.197,39z M25.195,39h-0.367c-0.147-0.416-0.376-0.8-0.698-1.121 c-0.321-0.32-0.706-0.549-1.122-0.696V26c0-1.102,0.898-1.999,2.001-1.999c1.104,0,2.001,0.896,2.001,1.998v11.187 C26.163,37.486,25.497,38.153,25.195,39z M22.009,39.001c0.267,0,0.519,0.104,0.708,0.294c0.189,0.188,0.292,0.438,0.292,0.705 c0,0.552-0.45,1.001-1.002,1.001c-0.551,0-1-0.449-1.001-1C21.007,39.449,21.457,39.001,22.009,39.001z M28.011,39.001 c0.268,0,0.519,0.104,0.708,0.294c0.189,0.188,0.293,0.439,0.293,0.704c-0.001,0.552-0.451,1.001-1.003,1.003 c-0.551-0.001-0.998-0.451-0.998-1.003C27.011,39.449,27.459,39.001,28.011,39.001z M35.015,40c0,0.551-0.449,1-1.001,1h-0.002 c-0.551,0-0.999-0.449-0.999-1s0.449-0.999,1.002-0.999C34.566,39.001,35.015,39.449,35.015,40z M4.357,8.229C2.852,7.26,2,6.68,2,6 c0-1.939,4.557-4,13.013-4c8.443,0,12.999,2.061,12.999,4c0,0.668-1.282,1.374-2.768,2.192c-4.166,2.296-11.109,6.13-11.232,19.454 c-0.005,0.014-0.01,0.027-0.016,0.042C13.9,14.382,7.937,10.529,4.357,8.229z M28.009,46L28.009,46c-0.952,0-2.573-0.224-4.273-0.85 c-1.955-0.827-3.549-2.227-4.775-4.15h0.231c0.415,1.162,1.515,2.001,2.816,2.001c1.303,0,2.404-0.839,2.818-2.001h0.37 c0.414,1.162,1.514,2.002,2.815,2.002h0.003c1.299-0.004,2.397-0.842,2.812-2.002h0.371c0.414,1.162,1.514,2,2.816,2 c1.302,0,2.402-0.838,2.816-2h1.411c-2.382,3.037-6.077,5-10.229,5c-0.001,0-0.001,0-0.002,0S28.01,46,28.009,46z"/> 
</defs>

<use x="0" y="0" xlink:href="#i-2173"/>

</svg>