<svg viewBox="0 0 48 48" xmlns="http://www.w3.org/2000/svg" xmlns:xlink="http://www.w3.org/1999/xlink" width="48" height="48">
<defs>



 <path fill="#5d6b82" id="i-2153" d="M17.816,2C17.401,0.838,16.302,0,15,0c-1.654,0-3,1.346-3,3s1.346,3,3,3c1.302,0,2.401-0.838,2.816-2H48V2H17.816z M15,4 c-0.551,0-1-0.449-1-1s0.449-1,1-1s1,0.449,1,1S15.551,4,15,4z M45,5c-1.302,0-2.401,0.838-2.815,2H12v2h30.185 c0.414,1.162,1.514,2,2.815,2c1.654,0,3-1.346,3-3S46.654,5,45,5z M45,9c-0.552,0-1-0.449-1-1s0.448-1,1-1s1,0.449,1,1 S45.552,9,45,9z M40,26h-2v-6h-8v6h-2V16h-8v10h-2V12h-8v14H8V8H0v40h8v-2h2v2h8v-2h2v2h8v-2h2v2h8v-2h2v2h8V24h-8V26z M6,46H2V10h4 V46z M10,44H8v-2h2V44z M10,40H8v-8h2V40z M10,30H8v-2h2V30z M16,46h-4V14h4V46z M20,44h-2v-2h2V44z M20,40h-2v-8h2V40z M20,30h-2 v-2h2V30z M26,46h-4V18h4V46z M30,44h-2v-2h2V44z M30,40h-2v-8h2V40z M30,30h-2v-2h2V30z M36,46h-4V22h4V46z M40,44h-2v-2h2V44z M40,40h-2v-8h2V40z M40,30h-2v-2h2V30z M42,26h4v20h-4V26z"/> 
</defs>

<use x="0" y="0" xlink:href="#i-2153"/>

</svg>